name D:\school\WTK\thesis\model\3dpredictsim\Results\batch_lin_tmt\Pog_s1_tmt_bCst_d05_k1000_ig24_act_TTC_v2.mot
datacolumns 128
datarows 4
range 0.62257265 0.65992701
endheader
time	pelvis_tilt	pelvis_list	pelvis_rotation	pelvis_tx	pelvis_ty	pelvis_tz	hip_flexion_l	hip_adduction_l	hip_rotation_l	hip_flexion_r	hip_adduction_r	hip_rotation_r	knee_angle_l	knee_angle_r	ankle_angle_l	ankle_angle_r	subtalar_angle_l	subtalar_angle_r	tmt_angle_l	tmt_angle_r	mtp_angle_l	mtp_angle_r	lumbar_extension	lumbar_bending	lumbar_rotation	arm_flex_l	arm_add_l	arm_rot_l	arm_flex_r	arm_add_r	arm_rot_r	elbow_flex_l	elbow_flex_r	pro_sup_l	pro_sup_r	glut_med1_l/activation	glut_med2_l/activation	glut_med3_l/activation	glut_min1_l/activation	glut_min2_l/activation	glut_min3_l/activation	semimem_l/activation	semiten_l/activation	bifemlh_l/activation	bifemsh_l/activation	sar_l/activation	add_long_l/activation	add_brev_l/activation	add_mag1_l/activation	add_mag2_l/activation	add_mag3_l/activation	tfl_l/activation	pect_l/activation	grac_l/activation	glut_max1_l/activation	glut_max2_l/activation	glut_max3_l/activation	iliacus_l/activation	psoas_l/activation	quad_fem_l/activation	gem_l/activation	peri_l/activation	rect_fem_l/activation	vas_med_l/activation	vas_int_l/activation	vas_lat_l/activation	med_gas_l/activation	lat_gas_l/activation	soleus_l/activation	tib_post_l/activation	flex_dig_l/activation	flex_hal_l/activation	tib_ant_l/activation	per_brev_l/activation	per_long_l/activation	per_tert_l/activation	ext_dig_l/activation	ext_hal_l/activation	ercspn_l/activation	intobl_l/activation	extobl_l/activation	glut_med1_r/activation	glut_med2_r/activation	glut_med3_r/activation	glut_min1_r/activation	glut_min2_r/activation	glut_min3_r/activation	semimem_r/activation	semiten_r/activation	bifemlh_r/activation	bifemsh_r/activation	sar_r/activation	add_long_r/activation	add_brev_r/activation	add_mag1_r/activation	add_mag2_r/activation	add_mag3_r/activation	tfl_r/activation	pect_r/activation	grac_r/activation	glut_max1_r/activation	glut_max2_r/activation	glut_max3_r/activation	iliacus_r/activation	psoas_r/activation	quad_fem_r/activation	gem_r/activation	peri_r/activation	rect_fem_r/activation	vas_med_r/activation	vas_int_r/activation	vas_lat_r/activation	med_gas_r/activation	lat_gas_r/activation	soleus_r/activation	tib_post_r/activation	flex_dig_r/activation	flex_hal_r/activation	tib_ant_r/activation	per_brev_r/activation	per_long_r/activation	per_tert_r/activation	ext_dig_r/activation	ext_hal_r/activation	ercspn_r/activation	intobl_r/activation	extobl_r/activation	
          0.62257265	         -2.93009449	          1.35240911	         -8.35166634	          0.77821582	          0.85587106	          0.00214122	         33.77610662	          0.79983468	          0.36255142	        -15.86455660	         -2.62071361	          8.98897298	        -16.61731518	        -16.24678660	          8.85185773	         -8.03744756	          1.13102060	         18.35155668	          0.02433167	          1.34321442	         -0.08450711	         28.46553119	         -0.33002373	          1.11400385	          3.20940584	        -12.65792250	        -13.61709226	          8.07309347	          3.36843309	        -13.49701713	         17.62439035	         18.56038795	         46.81859232	         86.51662706	         86.51662706	          0.05000193	          0.05000240	          0.06037547	          0.05000139	          0.05000169	          0.05000309	          0.15814019	          0.06037769	          0.15820914	          0.06037676	          0.05000372	          0.05193871	          0.08820378	          0.15898101	          0.15338654	          0.11170691	          0.05000917	          0.05002197	          0.06039280	          0.06037568	          0.06037678	          0.05819020	          0.06288682	          0.06876414	          0.17691315	          0.05000128	          0.05018693	          0.05000086	          0.05000382	          0.05915377	          0.05000552	          0.06058803	          0.06038037	          0.07050158	          0.06037621	          0.06192234	          0.07288723	          0.46679576	          0.29229272	          0.21356979	          0.11899231	          0.50721763	          0.28120027	          0.05190643	          0.13368117	          0.12255250	          0.18174324	          0.10630244	          0.06049304	          0.21517325	          0.15129145	          0.10630032	          0.05000743	          0.05000067	          0.05000069	          0.05000337	          0.10630656	          0.05000044	          0.05000033	          0.05000040	          0.05000100	          0.05000112	          0.20287240	          0.05000167	          0.05000087	          0.05003406	          0.05000891	          0.05000167	          0.38783043	          0.56839808	          0.05000046	          0.05000628	          0.06669856	          0.25791726	          0.05003187	          0.07753848	          0.08798834	          0.15814701	          0.23980016	          0.05813032	          0.16033450	          0.19947818	          0.21104183	          0.05000013	          0.46586513	          0.38281804	          0.05000036	          0.24504819	          0.05000051	          0.05000004	          0.05000007	          0.05000012	
          0.63502411	         -2.92741003	          1.28238924	         -8.52427925	          0.79840766	          0.85469282	          0.00178913	         33.08960253	          1.04645085	          0.54749278	        -16.04326958	         -2.80212612	          8.76868141	        -16.30883306	        -17.54023300	          8.38119961	        -11.06823630	          0.76130628	         18.73680620	          0.02250195	          1.03366549	         -0.07468452	         30.11829351	         -0.06144778	          0.97010171	          3.31878938	        -14.11890695	        -13.59195553	          7.97942581	          2.83024943	        -13.55334956	         17.81152896	         18.52847860	         48.10344156	         86.51662706	         86.51662706	          0.06653535	          0.05067914	          0.05000056	          0.06037668	          0.06037633	          0.05079154	          0.14243638	          0.05000150	          0.14405066	          0.05000137	          0.06037109	          0.08804263	          0.15638047	          0.13166037	          0.12703041	          0.14156901	          0.05000043	          0.07291879	          0.05001497	          0.05000098	          0.05000090	          0.17981175	          0.06037784	          0.06036403	          0.14650942	          0.22723766	          0.20416208	          0.07290565	          0.21318833	          0.20611037	          0.18161080	          0.05017551	          0.05000362	          0.05838531	          0.05000020	          0.05128089	          0.06036174	          0.63389943	          0.30466786	          0.17686650	          0.51859319	          0.61591587	          0.47276329	          0.05000020	          0.11070685	          0.10149074	          0.15050925	          0.08803359	          0.05009706	          0.17819406	          0.12529090	          0.08803201	          0.05000362	          0.05000044	          0.05000044	          0.05000086	          0.08803751	          0.13181243	          0.19592495	          0.05003695	          0.05001375	          0.05000158	          0.16800712	          0.10309437	          0.05297386	          0.05000891	          0.05000472	          0.05000287	          0.32117840	          0.47071420	          0.07002049	          0.05000922	          0.05523610	          0.21359183	          0.07741352	          0.08588840	          0.07997851	          0.13096799	          0.19858831	          0.05000009	          0.13277955	          0.16519611	          0.17477241	          0.24993091	          0.45399991	          0.35060667	          0.48090173	          0.42889430	          0.20967700	          0.05000020	          0.05000103	          0.07104081	
          0.64747556	         -2.91794835	          1.21439444	         -8.65613622	          0.81883643	          0.85310622	          0.00144331	         32.27624879	          1.31721121	          0.79658781	        -16.01504502	         -2.93636267	          8.54379924	        -16.61656772	        -19.23923812	          7.64064298	        -13.86702737	          0.39507357	         19.06519428	          0.02130202	          0.73136273	         -0.03792352	         30.86113296	          0.21596902	          0.80712243	          3.41337837	        -15.55012209	        -13.57724405	          7.95280170	          2.21984160	        -13.62762027	         17.93568077	         18.44187227	         49.36626385	         86.51662706	         86.51662706	          0.19684651	          0.05000061	          0.16935855	          0.05000058	          0.05000049	          0.05000066	          0.11795757	          0.05000089	          0.11929433	          0.05000017	          0.05000044	          0.07291213	          0.12950551	          0.28455085	          0.24373918	          0.15065179	          0.05001158	          0.06039121	          0.08015642	          0.14589235	          0.13814095	          0.15321508	          0.05000152	          0.05000087	          0.31877449	          0.18818494	          0.16907517	          0.06037659	          0.26587567	          0.26303450	          0.23210955	          0.05000014	          0.05000036	          0.05000005	          0.05000154	          0.06037216	          0.05001119	          0.60509928	          0.39547854	          0.21108080	          0.53141711	          0.59159320	          0.39151481	          0.05000005	          0.09168087	          0.08404863	          0.12464298	          0.07290459	          0.06039233	          0.14757006	          0.10375875	          0.07290340	          0.05769119	          0.06037663	          0.06041746	          0.05000096	          0.07290790	          0.20468388	          0.27274985	          0.32137457	          0.13323815	          0.13542282	          0.13913370	          0.08537787	          0.06038484	          0.06035658	          0.06038869	          0.07289492	          0.26598101	          0.38981793	          0.07290510	          0.07267671	          0.06037906	          0.17688412	          0.06411131	          0.10630134	          0.06689415	          0.10845994	          0.16445910	          0.05000003	          0.10996018	          0.13680576	          0.14473623	          0.46096591	          0.46555603	          0.33796636	          0.71635445	          0.54188218	          0.36795510	          0.07621524	          0.06037651	          0.05883200	
          0.65992701	         -2.90374747	          1.15271352	         -8.74478312	          0.83921062	          0.85116252	          0.00111847	         31.30546414	          1.57375397	          1.08583838	        -15.75272094	         -3.02422528	          8.32410139	        -17.26534019	        -21.39498216	          7.10975221	        -16.03503751	          0.01192653	         19.29991445	         -0.00939714	          0.51619280	         -0.19290626	         29.76584952	          0.47845230	          0.62297031	          3.48950296	        -16.88752638	        -13.58243627	          8.05183139	          1.58699194	        -13.70672117	         18.00175222	         18.25747644	         50.58079509	         86.51662706	         86.51662706	          0.29727759	          0.32725312	          0.43048170	          0.20068171	          0.19616643	          0.25722901	          0.09768613	          0.10139015	          0.10165837	          0.07290566	          0.05001431	          0.06038164	          0.10724889	          0.23564862	          0.20191972	          0.17269928	          0.05000050	          0.05001545	          0.06638305	          0.27353004	          0.21699007	          0.18782025	          0.05000034	          0.05000031	          0.26399510	          0.15584434	          0.29352324	          0.05000038	          0.22018317	          0.22417556	          0.19222278	          0.05000016	          0.05000026	          0.05000007	          0.05000002	          0.05000130	          0.05000086	          0.72005012	          0.34120794	          0.17480494	          0.74395708	          0.70437303	          0.52528833	          0.05249120	          0.08368575	          0.06960411	          0.29724121	          0.06037574	          0.05001350	          0.18730955	          0.08592754	          0.06037593	          0.05000586	          0.05000080	          0.05003441	          0.05000055	          0.06038141	          0.16950722	          0.22587573	          0.26614356	          0.11034053	          0.11214950	          0.11522281	          0.07070746	          0.05000813	          0.05000851	          0.05001201	          0.06036773	          0.22026989	          0.37766930	          0.06037582	          0.06018727	          0.05000301	          0.14648498	          0.08803372	          0.08803310	          0.05539799	          0.08982011	          0.13619532	          0.05000009	          0.09106254	          0.11329458	          0.11986207	          0.38174907	          0.39997405	          0.30222777	          0.68390233	          0.74441434	          0.30471907	          0.10737092	          0.05000026	          0.05000026	
